<mxfile host="app.diagrams.net" modified="2024-03-14T08:37:42.200Z" agent="Mozilla/5.0 (X11; Ubuntu; Linux x86_64; rv:123.0) Gecko/20100101 Firefox/123.0" version="24.0.5" etag="t5rv7ceyStms0nqLiThC" type="github">
  <diagram name="Page-1" id="S8j_egNwSijgdve_KBxc">
    <mxGraphModel>
      <root>
        <mxCell id="0" />
        <mxCell id="1" parent="0" />
      </root>
    </mxGraphModel>
  </diagram>
</mxfile>
